<?xml version="1.0" encoding="utf-8"?>
<!-- Generator: Adobe Illustrator 16.0.0, SVG Export Plug-In . SVG Version: 6.00 Build 0)  -->
<!DOCTYPE svg PUBLIC "-//W3C//DTD SVG 1.1//EN" "http://www.w3.org/Graphics/SVG/1.1/DTD/svg11.dtd">
<svg version="1.1" id="Layer_1" xmlns="http://www.w3.org/2000/svg" xmlns:xlink="http://www.w3.org/1999/xlink" x="0px" y="0px"
	 width="1920px" height="1080px" viewBox="0 0 1920 1080" enable-background="new 0 0 1920 1080" xml:space="preserve">
<path fill="#FFFFFF" stroke="#B6E4FA" stroke-width="7" stroke-miterlimit="10" d="M0,930.068l49.044-0.696l487.566,3.065
	c0,0,36.797-12.266,36.797-73.594c0-61.329,0-144.123,0-144.123s11.561-26.08,33.731-24.53
	c28.857,2.016,340.375-3.511,340.375-3.511l107.325-100.75h453.834c0,0,42.934,6.132,30.669,36.797
	c-12.268,30.664,2.199,229.983,2.199,229.983s0.863,27.601,40.728,33.732s152.693-7.411,152.693-7.411s47.453-16.508,37.427-60.052
	c-6.346-27.553-9.199-217.718-9.199-217.718s23.445-42.554,45.995-39.863c26.193,3.123,144.125-2.69,144.125-2.69
	s39.864,39.49,39.864,60.954c0,21.462-18.4,248.381-18.4,248.381v9.199"/>
</svg>
